<?xml version="1.0" encoding="utf-8"?>
<!-- Designed by Vexels.com - 2019 All Rights Reserved - https://vexels.com/terms-and-conditions/  -->
<svg version="1.1" id="Capa_1" xmlns="http://www.w3.org/2000/svg" x="0px" y="0px"
     viewBox="0 0 1200 1200" enable-background="new 0 0 1200 1200" xml:space="preserve">
<g>
	<g>
		<path fill="#494170" d="M816.714,228.602c-2.674-1.124-5.748,0.133-6.867,2.805c-0.61,1.447-1.337,2.318-2.162,2.587
			c-1.529,0.507-3.942-0.484-4.874-1.043c-2.454-1.504-5.663-0.756-7.195,1.688c-1.534,2.456-0.789,5.694,1.667,7.231
			c0.551,0.343,4.577,2.751,9.454,2.751c1.322,0,2.705-0.177,4.101-0.62c2.682-0.85,6.365-3.023,8.681-8.532
			C820.641,232.8,819.386,229.724,816.714,228.602z"/>
		<path fill="#494170" d="M1137.002,87.483c-1.188-3.901-4.354-6.606-8.691-7.423l-78.104-8.484
			c-7.167-0.779-14.319,1.227-20.049,5.661c-5.679,4.396-13.3,10.257-20.245,15.588c-3.432-2.943-7.741-4.934-12.559-5.499
			c-4.804-0.557-9.456,0.387-13.477,2.462c-5.602-6.885-11.755-14.458-16.284-20.074c-4.434-5.492-10.735-9.001-17.743-9.882
			l-77.822-9.782l-0.407-0.036c-4.403-0.195-8.112,1.693-10.172,5.213c-2.377,4.065-2.021,9.713,0.909,14.388
			c3.079,4.912,9.933,12.05,24.154,13.873c0.732,4.255,2.659,10.445,7.741,15.479c5.474,5.423,13.104,8.163,22.707,8.163
			c0.689,0,1.391-0.015,2.103-0.044c0.835-0.033,1.599-0.07,2.396-0.105c1.752,3.769,5.776,10.316,13.939,14.785
			c5.745,3.148,12.441,4.721,20.031,4.721c5.939,0,12.456-1.021,19.459-2.95c1.338,2.054,3.002,3.881,4.909,5.435l-15.084,111.287
			c-0.388,0.124-0.775,0.254-1.156,0.411c-2.405-2.741-5.883-4.442-9.634-4.443c-5.274,0.105-11.035,3.993-12.018,12.451
			c-1.076,9.256,2.604,15.311,5.369,18.467c-1.033,5.046-1.646,10.573-1.762,16.428c-0.072,3.633,0.675,6.935,2.184,9.779
			c-8.907,11.02-42.562,49.56-78.551,50.879c-18.809,0.692-31.499,5.434-39.699,10.299c-10.502-6.49-28.689-11.767-36.205-13.778
			c-2.305-16.647,6.208-21.164,8.456-22.048c1.687,0.176,3.351,0.287,4.97,0.287c9.885,0,18.404-3.258,24.239-9.582
			c5.604-6.073,7.503-13.919,4.833-19.99c-2.349-5.338-2.282-13.171-1.86-17.948c6.363-2.454,9.867-5.369,11.201-9.249
			c1.844-5.348-1.296-9.954-3.822-13.653c-0.689-1.009-1.393-2.034-1.985-3.079c-1.96-3.473-1.58-4.385-1.273-5.12
			c2.216-5.31,2.779-10.727,1.632-15.671c-1.213-5.205-3.12-9.396-5.061-12.636c0.947-2.148,1.126-4.189,1.152-4.782
			c0.002-0.056-0.01-0.108-0.009-0.163c0.001-0.111-0.001-0.222-0.007-0.334c-0.003-0.053,0.007-0.103,0.003-0.156
			c-0.005-0.066-0.027-0.126-0.035-0.19c-0.016-0.135-0.034-0.268-0.06-0.4c-0.01-0.049-0.007-0.096-0.018-0.145
			c-0.017-0.075-0.044-0.149-0.062-0.224c-0.014-0.052-0.027-0.104-0.043-0.155c-1.211-5.132-3.378-10.113-6.356-14.812
			c-0.209-0.422-0.464-0.812-0.773-1.157c-9.592-14.342-26.715-25.907-46.988-30.812c-5.858-1.418-11.657-2.194-17.336-2.404
			c-6.62-2.185-14.993-5.577-22.417-8.59c-3.809-1.545-7.441-3.02-10.622-4.247c-18.45-7.108-41.25,7.118-53.202,16.235
			c-2.474,1.89-3.758,4.982-3.348,8.074c0.41,3.084,2.454,5.727,5.328,6.903c3.317,1.355,8.01,2.723,13.43,2.723
			c3.212,0,6.687-0.521,10.277-1.77c1.419,0.641,3.41,1.469,5.735,2.244c-0.925,0.981-1.845,1.969-2.72,3.013
			c-2.088,2.492-3.97,5.101-5.747,7.749c-4.607-1.632-9.104-3.274-13.244-4.87c-23.122-8.909-52.843,11.237-64.546,20.323
			c-2.467,1.919-3.717,4.915-3.343,8.017c0.369,3.069,2.272,5.653,5.087,6.913c5.367,2.403,16.85,6.075,29.641,1.572
			c3.666,1.79,11.223,4.896,19.591,4.896c2.793,0,5.673-0.378,8.527-1.236c1.291,1.007,2.778,1.99,4.461,2.838
			c-3.141,29.361,8.859,53.347,10.338,56.167c2.625,6.228,5.689,17.097,4.058,21.093c-0.478,1.169-0.69,2.417-0.656,3.656
			c-2.199,0.528-4.249,1.439-6.061,2.683c-8.986-0.032-47.548,0.918-76.598,17.806c-1.91,0.958-13.705,7.498-22.703,26.333
			c-13.9,2.648-48.873,20.221-64.049,60.886c-15.112,9.577-35.814,25.942-46.144,48.505c-6.801,14.856-13.268,31.524-18.973,46.232
			c-6.847,17.651-14.611,37.661-18.289,40.937c-0.879,0.784-1.842,1.591-2.843,2.433c-6.459,5.422-16.474,13.864-15.99,27.362
			l-54.863,15.755l-0.328,0.105c-4.805,1.726-8.694,5.19-10.968,9.682l-9.9,3.56c-1.429,0.51-2.966,0.681-4.6,0.502
			c-3.727-0.402-7.451,0.405-10.743,2.351c-5.876,3.473-9.185,10.338-8.235,17.08c0.74,5.246,3.727,9.8,8.199,12.495
			c2.733,1.65,5.807,2.49,8.904,2.49c1.97,0,3.947-0.338,5.855-1.025c2.428-0.873,4.577-2.241,6.386-4.063
			c1.268-1.278,2.682-2.2,4.203-2.748l9.695-3.484c4.616,2.011,9.813,2.203,14.621,0.476l57.469-25.322
			c1.556,0.956,3.171,1.773,4.875,2.346c2.057,0.694,4.598,1.219,7.569,1.219c4.995,0,11.209-1.486,18.391-6.158
			c3.894-2.533,6.173-6.646,6.512-10.991l33.28-9.494c-14.37,26.957-26.46,56.592-35.247,86.468
			c-1.97,3.978-17.59,35.793-21.188,51.469c-12.949,4.39-63.087,23.555-97.662,67.134c-1.252-12.655-4.319-24.616-7.382-29.986
			c-1.565-2.741-4.273-4.549-7.244-4.839c-2.738-0.269-5.384,0.797-7.221,2.92c-3.846,4.446-10.669,14.381-10.023,27.919
			c-0.553,0.599-1.171,1.293-1.877,2.152c-5.015-13.25-13.36-25.147-18.356-31.585c-1.916-2.469-4.908-3.732-8.012-3.35
			c-3.071,0.366-5.661,2.269-6.924,5.09c-2.405,5.368-6.078,16.851-1.573,29.641c-2.39,4.894-7.12,16.733-3.679,28.141
			c-4.253,5.473-8.042,14.802-3.139,24.804c-15.676-8.721-33.331-13.145-52.728-13.145c-34.57,0-67.116,16.314-87.884,43.842
			c-6.66-2.38-13.627-3.583-20.773-3.583c-34.134,0-61.905,27.771-61.905,61.906c0,0.006,0.002,0.012,0.002,0.019
			c0,0.007-0.002,0.013-0.002,0.02c0.001,0.177,0.037,0.343,0.056,0.515c0.019,0.175,0.021,0.354,0.057,0.523
			c0.031,0.149,0.09,0.284,0.133,0.428c0.056,0.186,0.1,0.378,0.176,0.555c0.055,0.129,0.134,0.243,0.199,0.366
			c0.092,0.176,0.175,0.357,0.286,0.521c0.077,0.113,0.175,0.209,0.26,0.316c0.124,0.155,0.24,0.318,0.381,0.458
			c0.095,0.094,0.207,0.167,0.308,0.254c0.153,0.131,0.299,0.27,0.467,0.383c0.121,0.081,0.257,0.137,0.385,0.209
			c0.167,0.093,0.327,0.197,0.504,0.272c0.159,0.067,0.332,0.103,0.498,0.154c0.161,0.05,0.316,0.115,0.483,0.149
			c0.34,0.07,0.693,0.106,1.053,0.106c0.013,0,0.026,0,0.038,0c62.788-0.472,154.44-0.884,179.827-0.331
			c-0.414,1.273-0.799,2.499-1.159,3.685c-7.645,5.965-14.474,12.844-20.301,20.57c-6.657-2.38-13.627-3.583-20.773-3.583
			c-34.134,0-61.903,27.771-61.903,61.906v5.246h802.981v-5.246c0-39.385-32.044-71.429-71.429-71.429
			c-8.463,0-16.708,1.463-24.575,4.354c-7.402-9.914-16.124-18.576-25.813-25.836c38.508-0.5,144.77-0.036,219.065,0.492
			c0.013,0,0.026,0,0.038,0c0.361,0,0.714-0.037,1.055-0.106c0.097-0.02,0.185-0.061,0.28-0.086
			c0.239-0.063,0.479-0.124,0.703-0.218c0.087-0.037,0.163-0.093,0.248-0.134c0.22-0.107,0.441-0.213,0.643-0.349
			c0.073-0.049,0.132-0.113,0.202-0.165c0.199-0.149,0.398-0.298,0.574-0.474c0.062-0.062,0.11-0.138,0.169-0.203
			c0.166-0.183,0.332-0.366,0.471-0.572c0.056-0.083,0.094-0.178,0.145-0.264c0.121-0.202,0.245-0.403,0.338-0.622
			c0.05-0.117,0.075-0.247,0.117-0.369c0.069-0.202,0.146-0.4,0.19-0.612c0.03-0.144,0.03-0.298,0.048-0.447
			c0.023-0.195,0.062-0.385,0.063-0.586c0-0.007-0.002-0.013-0.002-0.02c0-0.006,0.002-0.012,0.002-0.019
			c0-39.972-32.52-72.492-72.492-72.492c-8.612,0-17.003,1.493-25.002,4.442c-14.273-19.138-33.373-33.687-54.935-42.518
			c-0.58-7.287-1.729-14.406-3.455-21.294c1.075,1.74,2.56,3.239,4.43,4.302c1.911,1.089,4.037,1.634,6.168,1.634
			c1.89,0,3.781-0.428,5.528-1.294c3.719-1.837,6.273-5.392,6.831-9.506l65.109-479.722c5.13-0.652,9.224-4.423,10.239-9.533v-0.003
			c1.158-5.838,2.823-16.424,5.138-31.616c1.14-7.492,0.079-13.074-3.243-17.067c-1.116-1.342-2.414-2.36-3.809-3.191
			l15.032-110.915c2.315-1.083,4.429-2.536,6.274-4.288c10.478,5.757,20.206,8.686,29.042,8.686c3.407,0,6.683-0.43,9.821-1.291
			c8.974-2.463,14.401-7.904,16.975-11.167c0.768,0.218,1.505,0.43,2.308,0.655c4.073,1.14,7.912,1.711,11.504,1.711
			c5.417,0,10.271-1.296,14.508-3.881c6.107-3.723,9.412-9.298,11.108-13.269c1.687,0.179,3.296,0.269,4.819,0.269
			c11.355,0,18.245-4.603,21.885-8.192C1136.723,97.401,1138.375,91.988,1137.002,87.483z M971.232,107.975
			c-0.226,1.93-0.184,3.827,0.049,5.675c-12.726,3.382-23.044,3.091-30.646-0.977c-3.485-1.865-5.863-4.246-7.442-6.357
			c0.718-0.053,1.454-0.104,2.132-0.159c2.889-0.236,5.038-2.769,4.8-5.656c-0.238-2.889-2.736-5.059-5.656-4.8
			c-4.331,0.353-9.508,0.651-15.827,0.904c-7.523,0.274-13.22-1.391-16.936-5.023c-2.441-2.386-3.718-5.316-4.394-7.775
			c1.773-0.096,3.601-0.239,5.541-0.483c2.874-0.361,4.91-2.987,4.549-5.861c-0.361-2.877-3.002-4.903-5.861-4.549
			c-14.78,1.872-25.546-1.288-30.294-8.868c-1.078-1.721-0.963-3.227-0.794-3.486c0,0,0.146-0.069,0.515-0.069l77.574,9.751
			c4.301,0.54,8.166,2.692,10.884,6.06c4.57,5.664,10.787,13.318,16.43,20.252C973.405,99.782,971.737,103.666,971.232,107.975z
			 M359.377,627.519c-2.999,1.076-5.722,2.836-8.097,5.225c-0.702,0.71-1.545,1.242-2.495,1.586
			c-1.931,0.692-4.037,0.482-5.789-0.576c-1.78-1.073-2.928-2.841-3.227-4.977c-0.361-2.554,0.95-5.261,3.186-6.583
			c1.324-0.784,2.8-1.122,4.257-0.953c3.222,0.348,6.35-0.003,9.296-1.06l7.103-2.554l2.666,7.413L359.377,627.519z M383.54,624.566
			c-2.09,0.708-4.314,0.621-6.342-0.161l-4.763-13.243c1.067-1.9,2.733-3.39,4.798-4.17l54.018-15.514
			c1.4,3.68,3.126,6.972,5.162,9.777L383.54,624.566z M829.411,227.075c0.82,3.517-0.143,6.975-1.094,9.252
			c-1.867,4.47-1.322,8.753,1.821,14.319c0.771,1.365,1.627,2.62,2.454,3.835c0.938,1.373,2.505,3.673,2.587,4.278
			c-0.01,0.018-0.955,1.688-7.705,3.84l-3.048,0.971l-0.533,3.156c-0.108,0.645-2.597,15.922,2.239,26.918
			c0.809,1.839,0.059,5.4-2.938,8.647c-2.357,2.554-11.586,10.351-31.327,3.489c-2.741-0.95-5.727,0.499-6.678,3.235
			c-0.95,2.738,0.499,5.727,3.235,6.678c0.101,0.035,0.199,0.057,0.299,0.092c-4.81,5.898-8.167,15.492-5.28,29.984
			c0.005,0.032,0.01,0.063,0.016,0.095c0.011,0.056,0.015,0.106,0.027,0.162c0.034,0.165,0.094,0.318,0.142,0.476
			c0.035,0.116,0.06,0.234,0.103,0.347c0.107,0.28,0.237,0.546,0.386,0.799c0.011,0.019,0.018,0.04,0.029,0.058
			c0.169,0.278,0.364,0.536,0.578,0.774c0.057,0.063,0.124,0.115,0.184,0.176c0.162,0.163,0.328,0.322,0.509,0.462
			c0.1,0.078,0.209,0.143,0.315,0.213c0.162,0.107,0.325,0.21,0.498,0.299c0.118,0.061,0.24,0.114,0.364,0.166
			c0.186,0.078,0.375,0.145,0.569,0.202c0.075,0.022,0.142,0.059,0.219,0.078c0.233,0.056,20.476,5.041,32.927,11.352
			c-2.451,2.395-3.584,4.133-3.731,4.367c-1.542,2.451-0.804,5.692,1.65,7.234c0.866,0.546,1.831,0.804,2.787,0.804
			c1.744,0,3.45-0.868,4.447-2.454c0.092-0.145,9.495-13.753,38.667-16.314c-3.755,3.609-6.903,7.748-8.071,12.187
			c-0.735,2.802,0.938,5.671,3.74,6.409c0.448,0.118,0.896,0.174,1.337,0.174c2.326,0,4.452-1.56,5.072-3.914
			c1.712-6.514,13.912-14.652,21.418-18.388c32.09-9.857,58.602-39.677,67.586-50.754c0.401,0.224,0.794,0.456,1.21,0.658
			l-4.936,36.369c-41.631,53.938-86.161,67.28-91.132,68.628c-3.058,0.83-5.899,2.462-8.22,4.718
			c-11.963,11.636-34.344,11.39-44.487,10.587c3.605-21.491-2.417-45.426-7.347-60.131c-0.92-2.748-3.891-4.216-6.642-3.307
			c-2.746,0.922-4.226,3.896-3.307,6.642c0.25,0.745,0.52,1.584,0.791,2.436c-0.349-0.195-0.717-0.364-1.119-0.479
			c-12.157-3.476-23.96,2.556-24.454,2.812c-2.561,1.337-3.55,4.488-2.226,7.054c0.932,1.803,2.766,2.836,4.67,2.836
			c0.807,0,1.624-0.187,2.39-0.576c0.085-0.046,8.655-4.352,16.737-2.039c2.416,0.693,4.933-0.439,6.071-2.581
			c4.779,17.566,9.443,45.745-2.795,63.787c-2.08,3.066-6.627,4.16-10.113,4.062c-7.81-0.1-16.424-2.095-20.845-4.603
			c4.831-12.923,4.413-28.361,4.39-29.075c-0.09-2.841-2.418-5.082-5.241-5.082c-0.054,0-0.11,0-0.167,0.003
			c-2.897,0.09-5.169,2.513-5.079,5.407c0.005,0.155,0.394,14.604-3.941,25.617c-6.872,1.016-26.355,2.796-42.099-6.32
			c-4.805-38.799,0.186-73.704,2.077-84.698c7.924-2.004,13.814-9.173,13.814-17.71c0-1.142-0.119-2.256-0.32-3.341
			c6.003,5.202,13.32,7.865,20.023,8.543c0.279,0.031,0.558,0.044,0.835,0.044c3.24,0,6.132-1.929,7.357-4.995
			c1.36-3.409,0.318-7.216-2.6-9.472c-2.62-2.029-6.429-6.872-2.472-16.511c1.256-3.059,2.125-5.856,2.753-8.452
			c1.495,1.3,2.32,2.76,2.918,4.218c1.255,3.058,4.191,5.015,7.505,5.015c0.041,0,0.079,0,0.118,0
			c3.435-0.049,6.434-2.149,7.643-5.351c1.727-4.576,2.438-9.807,2.713-14.04c1.622,0.383,3.291,0.681,5.056,0.785
			c0.102,0.005,0.208,0.008,0.31,0.008c2.756,0,5.069-2.152,5.233-4.941c0.167-2.892-2.039-5.374-4.933-5.543
			c-9.726-0.566-12.39-7.2-12.974-9.219c-0.85-2.943-0.161-5.013,0.228-5.295c0,0,0.605-0.164,2.088,0.546
			c10.748,5.149,18.783,5.625,25.294,1.501c2.495-1.575,3.947-4.29,3.886-7.264c-0.061-3.002-1.714-5.791-4.308-7.282
			c-3.714-2.136-5.94-4.746-6.801-7.979c-1.194-4.479,0.475-9.173,1.494-11.438c12.052-5.599,24.958-9.944,38.314-12.028
			C824.476,215.417,827.727,219.848,829.411,227.075z M748.029,457.007c-2.866-0.366-5.497,1.673-5.861,4.549
			c-0.021,0.159-2.129,16.147-11.898,29.121c-1.742,2.316-1.281,5.604,1.035,7.346c0.945,0.712,2.052,1.055,3.151,1.055
			c1.593,0,3.166-0.722,4.196-2.09c1.195-1.587,2.269-3.208,3.274-4.837c-0.892,2.078-1.771,4.155-2.638,6.22
			c-1.249,2.978-2.524,6.006-3.843,8.997c-5.442-7.707-9.954-15.907-13.685-24.378c2.604-20.918,12.892-21.402,13.706-21.402
			c0.008,0,0.013,0,0.02,0.003c2.836,0.056,5.295-2.021,5.492-4.877c0.202-2.889-1.977-5.394-4.869-5.597
			c-0.702-0.054-13.522-0.693-20.691,15.022c-2.664-8.4-4.69-16.917-6.201-25.355c9.88,4.019,20.079,5.118,28.27,5.118
			c6.102,0,11.053-0.606,13.962-1.068c4.079,3.235,10.049,5.257,15.814,6.444c-1.802,2.916-3.95,5.598-6.349,8.493
			c-1.032,1.245-2.08,2.51-3.128,3.832c-3.422,4.313-6.296,8.957-8.865,13.752c2.792-7.961,3.601-14.051,3.656-14.487
			C752.94,459.994,750.903,457.369,748.029,457.007z M772.595,239.362c1.265,4.841,4.057,8.934,8.322,12.21
			c-2.28,0.174-5.881-0.458-11.693-3.243c-5.123-2.454-10.087-2.057-13.609,1.096c-4.142,3.706-5.302,10.443-2.956,17.167
			c1.366,3.914,3.697,7.176,6.696,9.732c0.013,2.658-0.154,6.578-0.843,10.358c-2.152-2.853-4.968-5.02-8.55-6.604
			c-0.414-6.866-2.909-10.534-3.378-11.16c-1.742-2.323-5.082-2.851-7.392-1.114c-2.318,1.739-2.833,4.959-1.094,7.277
			c0.041,0.064,4.132,6.616-1.773,20.996c-4.262,10.389-2.39,17.874,0.443,22.697c-5.799-2.308-12.848-7.462-15.138-18.97
			c-0.564-2.838-3.322-4.667-6.171-4.121c-1.468,0.293-2.66,1.178-3.401,2.351c-0.578-5.974-2.552-12.114-3.966-15.899
			c7.044-7.61,31.408-32.53,63.852-50.534C771.762,234.053,771.897,236.688,772.595,239.362z M686.886,166.058
			c8.55-6.109,27.379-17.784,40.338-12.779c3.128,1.206,6.706,2.659,10.453,4.18c1.142,0.463,2.31,0.937,3.488,1.413
			c-8.08,2.19-15.603,5.745-22.31,10.585c-1.247-0.153-2.503-0.409-3.72-0.726c0.555-0.48,1.11-0.924,1.663-1.454
			c2.09-2.003,2.162-5.325,0.159-7.418c-2-2.09-5.325-2.159-7.418-0.159C701.41,167.488,693.154,167.767,686.886,166.058z
			 M693.451,218.548c-0.012-0.002-0.024,0-0.036-0.002c-0.206-0.073-0.407-0.151-0.605-0.231c0.414-0.38,0.835-0.73,1.24-1.148
			c2.018-2.08,1.967-5.402-0.113-7.418c-2.077-2.016-5.402-1.97-7.418,0.113c-5.87,6.049-13.977,5.648-20.157,4.036
			c1.171-0.932,2.342-1.947,3.507-3.063c2.09-2.003,2.162-5.325,0.159-7.418c-2.003-2.093-5.323-2.159-7.418-0.159
			c-3.332,3.192-6.674,5.374-9.947,6.813c-0.122,0.052-0.242,0.106-0.36,0.167c-7.586,3.211-14.771,2.37-20.512,0.345
			c10.174-7.52,34.849-23.601,51.941-17.006c5.388,2.079,11.343,4.227,17.382,6.329c0.018,0.006,0.035,0.012,0.053,0.018
			c8.113,2.824,16.378,5.56,23.653,7.907c-8.043,1.842-14.452,4.608-19.106,8.256c-4.119,3.228-7.927,3.569-11.014,2.835
			C694.307,218.756,693.895,218.617,693.451,218.548z M697.225,229.732c0.123,0.002,0.24,0.024,0.363,0.024
			c4.57,0,9.567-1.465,14.598-5.41c4.385-3.435,11.624-5.996,20.937-7.408c4.034-0.61,7.075-3.883,7.398-7.961
			c0.323-4.111-2.188-7.848-6.104-9.091c-6.783-2.153-15.026-4.825-23.413-7.673c1.121-1.551,2.294-3.082,3.539-4.568
			c14.964-17.851,39.037-24.849,64.365-18.719c14.591,3.531,27.241,10.849,35.779,20.071
			c-61.874,9.544-101.294,46.158-116.488,62.97C697.071,245.283,696.532,237.713,697.225,229.732z M701.189,264.624
			c8.366-10.248,49.423-59.258,119.664-68.012c0.696,1.281,2.138,4.608,2.679,5.926c-56.495,7.575-104.113,52.486-119.96,69.044
			C702.815,269.619,701.992,267.267,701.189,264.624z M704.924,317.999c4.298,0,7.794,3.496,7.794,7.795
			c0,4.287-3.48,7.774-7.763,7.791c-0.013,0-0.025,0.003-0.038,0.003c-4.295-0.004-7.788-3.498-7.788-7.794
			C697.129,321.496,700.626,317.999,704.924,317.999z M472.799,565.672c-0.035,0.015-0.063,0.038-0.098,0.054
			c-2.07,0.753-3.761,2.189-4.777,4.208c-0.848,1.683-3.427,6.808,3.43,22.979c0.725,1.711,0.082,3.712-1.529,4.759
			c-6.373,4.144-12.052,5.42-16.893,3.791c-5.125-1.724-9.442-6.834-12.154-14.385c-4.093-11.404,1.967-17.638,10.973-25.2
			c1.086-0.912,2.126-1.785,3.079-2.636c5.307-4.728,11.176-19.418,21.091-44.977c5.651-14.57,12.057-31.086,18.729-45.656
			c15.343-33.514,58.407-52.989,58.842-53.181c2.643-1.178,3.837-4.278,2.661-6.924c-1.176-2.651-4.285-3.842-6.919-2.666
			c-0.229,0.101-1.089,0.489-2.428,1.142c12.687-22.748,32.436-35,43.669-39.714c-1.462,4.701-2.727,9.91-3.682,15.718
			c-0.469,2.859,1.468,5.556,4.326,6.027c0.287,0.046,0.574,0.069,0.856,0.069c2.523,0,4.749-1.824,5.172-4.395
			c1.496-9.097,3.763-16.525,6.339-22.567c0.127-0.246,0.248-0.498,0.336-0.766c5.85-13.315,13.167-19.671,16.747-22.152
			c4.607,3.271,10.994,11.727,14.139,24.202c2.935,11.649,4.835,34.8-15.316,59.112c-22.724,23.873-56.286,37.827-71.413,43.243
			c-0.429-2.223-2.253-4.001-4.62-4.231c-2.928-0.292-5.451,1.831-5.727,4.713c-2.129,21.947-37.016,63.453-54.095,81.784
			c-1.849-0.739-4.034-0.398-5.569,1.064c-2.095,2-2.175,5.32-0.174,7.418c0.777,0.814,2.554,2.969,3.88,5.361L472.799,565.672z
			 M609.365,445.307c-3.131,6.708-6.457,13.21-9.978,19.518c-0.226-4.757-0.872-8.824-1.439-11.611
			C601.779,450.773,605.606,448.135,609.365,445.307z M583.34,490.322c-5.824,8.24-12.024,16.175-18.728,23.762
			c-6.768,7.661-13.126,15.649-19.81,24.892c-3.684-0.867-7.57-0.668-11.222,0.646l-42.25,18.108
			c-0.298-0.585-0.594-1.166-0.914-1.71c10.287-11.006,45.403-49.932,55.212-78.36c6.504-2.064,23.776-8.047,42.649-18.659
			C589.403,466.872,589.89,480.045,583.34,490.322z M479.611,585.268c-2.055-5.558-2.453-8.748-2.378-10.083l60.03-25.737
			c2.09-0.717,4.327-0.632,6.361,0.154l4.764,13.245c-1.066,1.898-2.728,3.385-4.793,4.167l-18.921,5.398
			c-0.018,0.005-0.036,0.01-0.054,0.015L479.611,585.268z M529.559,581.927l17.104-4.88l0.336-0.108
			c4.805-1.729,8.691-5.19,10.966-9.68l9.618-3.461c1.514-0.543,3.294-0.735,5.297-0.564c3.617,0.295,7.185-0.528,10.353-2.408
			c5.868-3.484,9.165-10.351,8.204-17.085c-0.745-5.241-3.735-9.79-8.204-12.479c-4.467-2.695-9.846-3.227-14.746-1.46
			c-2.536,0.912-4.762,2.359-6.621,4.301c-0.227,0.237-0.51,0.415-0.761,0.629c3.754-4.805,7.494-9.316,11.37-13.703
			c6.755-7.646,13.016-15.626,18.907-23.902c0.105-0.129,0.23-0.232,0.325-0.373c0.216-0.323,0.412-0.652,0.618-0.978
			c14.202-20.196,25.987-42.337,35.586-67.096c22.643-27.687,20.371-54.352,16.972-67.843c-2.749-10.905-8.183-20.779-14.435-26.963
			c20.245-9.387,44.06-11.842,56.741-12.46c-0.347,1.405-0.552,2.866-0.552,4.377c0,7.933,5.089,14.685,12.167,17.21
			c-3.986,23.125-15.984,115.352,32.712,176.603c0.243,2.88-0.101,10.33-8.789,15.189c-6.417-6.617-11.691-14.328-15.122-23.66
			c-0.999-2.718-4.019-4.109-6.734-3.112c-2.718,0.999-4.111,4.014-3.112,6.734c11.145,30.323,37.748,45.182,64.039,57.802
			c7.456,3.581,13.565,6.673,18.66,11.101c2.052,1.785,4.984,4.731,7.086,8.419c-53.798-10.878-109.337,23.254-161.583,62.272
			c-10.734,8.017-22.733,14.142-35.693,18.28c-3.829-6.55-7.824-12.077-10.705-15.788c-1.916-2.467-4.905-3.729-8.012-3.348
			c-3.071,0.369-5.658,2.272-6.921,5.09c-1.77,3.95-4.219,11.221-3.612,19.875c-30.586,2.784-57.502-4.136-69.503-7.604
			C501.002,639.836,514.102,609.25,529.559,581.927z M554.546,548.969l7.115-2.559c2.948-1.058,5.643-2.807,7.789-5.054
			c0.725-0.758,1.596-1.322,2.587-1.68c1.924-0.694,4.029-0.482,5.784,0.574c1.778,1.073,2.925,2.838,3.23,4.972
			c0.364,2.551-0.943,5.259-3.176,6.586c-1.276,0.761-2.672,1.109-4.106,0.973c-3.512-0.292-6.796,0.09-9.736,1.148l-6.821,2.454
			L554.546,548.969z M554.738,794.872c-0.151-2.392-0.346-4.657-0.535-6.808c-1.107-12.705-1.611-18.504,7.912-24.9
			c1.027-0.69,2.197-1.489,3.437-2.342c0.453,1.944,0.852,4.001,1.182,6.184c0.622,4.098,3.822,7.07,7.964,7.395
			c0.238,0.018,0.474,0.028,0.71,0.028c3.822-0.003,7.208-2.444,8.381-6.135c2.412-7.597,5.478-17.022,8.708-26.43
			c5.052-3.204,9.76-6.535,13.513-9.316c0.862,8.365,3.625,20.051,11.745,30.01c-5.871,3.27-14.999,8.462-22.554,13.233
			c-5.986,3.778-10.289,9.939-11.808,16.903c-5.461,25.092-17.062,55.702-24.979,59.503c-0.64,0.307-0.825,0.21-1.045,0.102
			c-6.724-3.34-4.836-24.308-3.586-38.181C554.438,806.832,555.058,799.952,554.738,794.872z M504.489,828.579
			c-5.753-1.153-11.601-1.737-17.461-1.737c-21.678,0-42.707,8.066-58.857,22.359c-2.259-5.072-5.133-9.888-8.504-14.319
			c41.269-25.34,90.882-58.273,136.069-94.87c0.838,1.966,1.97,3.958,3.527,5.96C527.345,761.601,506.447,793.063,504.489,828.579z
			 M573.813,720.398c-6.054-5.87-5.654-13.98-4.042-20.16c0.933,1.173,1.95,2.346,3.068,3.513c2.006,2.095,5.328,2.162,7.418,0.159
			c2.09-2.003,2.162-5.325,0.159-7.418c-3.198-3.339-5.383-6.688-6.822-9.968c-0.048-0.111-0.097-0.22-0.153-0.328
			c-0.575-1.356-1.019-2.698-1.351-4.022c-0.031-0.167-0.069-0.33-0.115-0.491c-1.361-5.906-0.507-11.423,1.111-16.011
			c7.523,10.169,23.606,34.836,17.008,51.941c-4.872,12.633-10.156,28.378-14.255,41.088c-1.069-4.667-2.458-8.765-4.141-12.308
			c-0.017-0.043-0.022-0.088-0.04-0.131c-0.044-0.105-0.108-0.193-0.158-0.294c-1.167-2.392-2.47-4.527-3.917-6.374
			c-2.459-3.136-3.225-6.088-3.137-8.685c0.006-0.057,0.003-0.115,0.007-0.172c0.072-1.47,0.411-2.82,0.894-4.017
			c0.374,0.406,0.749,0.811,1.158,1.208c1.019,0.989,2.336,1.481,3.653,1.481c1.368,0,2.738-0.533,3.765-1.593
			C575.944,725.736,575.893,722.414,573.813,720.398z M595.235,682.068c5.218-1.745,10.277-3.812,15.183-6.156
			c-3.95,4.188-8.082,8.419-12.426,12.693C597.156,686.382,596.228,684.197,595.235,682.068z M610.819,715.118
			c1.671-6.483,1.477-13.564-0.608-21.459c13.587-8.82,42.463-26.318,67.933-33.576c-19.642,13.382-44.286,34.537-58.7,47.31
			c-0.028,0.023-0.054,0.048-0.081,0.072C615.818,710.606,612.884,713.246,610.819,715.118z M630.524,669.268
			c3.845-4.472,7.467-8.886,10.818-13.221c6.186-4.507,12.411-8.903,18.662-13.133c2.722,1.913,7.111,4.774,12.867,7.784
			C658.421,655.107,643.407,662.243,630.524,669.268z M627.944,713.903c18.525-16.334,51.763-44.571,69.828-53.466
			c7.987,2.118,16.85,3.521,26.32,3.521c7.746,0,15.904-0.94,24.311-3.192c2.797-0.748,4.46-3.625,3.709-6.424
			c-0.748-2.797-3.614-4.47-6.424-3.709c-33.702,9.022-63.702-6.215-76.131-14.024c41.609-26.753,84.131-44.309,124.248-32.175
			c0.066,0.02,0.133,0.022,0.199,0.039c0.076,0.02,0.143,0.055,0.221,0.071c16.875,3.614,41.603,12.905,43.745,22.241
			c0.92,4.016-3.407,8.384-7.2,11.337c-7.682,5.984-14.913,13.291-22.569,21.027c-27.003,27.29-63.546,64.163-166.687,94.903
			C628.511,741.083,627.814,720.39,627.944,713.903z M353.874,817.065c4.281-4.877,8.401-9.943,12.368-15.305
			c29.543-39.921,74.76-59.909,91.862-66.368c0.053,0.935,0.117,1.849,0.182,2.731c0.681,9.319,1.132,15.474-17.958,23.868
			c-2.654,1.165-3.858,4.262-2.692,6.913c0.866,1.967,2.787,3.138,4.805,3.138c0.704,0,1.422-0.143,2.108-0.446
			c23.968-10.538,25.148-21.286,24.203-34.239c-0.251-3.409-0.487-6.632,0.131-9.913c2.146-11.417,14.136-36.954,18.866-46.755
			c10.173,2.971,32.251,8.927,58.836,8.927c5.235,0,10.649-0.24,16.175-0.771c-2.459,5.223-6.684,16.574-3.381,27.524
			c-2.222,2.859-4.299,6.772-5.097,11.288c-47.951,39.446-101.6,74.846-145.024,101.302c-0.125,0.068-0.244,0.143-0.365,0.222
			c-14.825,9.027-28.448,17.007-40.233,23.743C350.168,846.734,352.908,822.885,353.874,817.065z M329.457,822.178
			c2.39-6.197,2.68-12.866,1.668-19.534c0.393-0.761,0.799-1.486,1.224-2.18c0.558,1.395,1.197,2.812,1.934,4.255
			c1.317,2.579,4.475,3.607,7.057,2.282c2.582-1.319,3.601-4.477,2.282-7.057c-2.105-4.118-3.232-7.953-3.666-11.506
			c-0.012-0.107-0.026-0.213-0.045-0.32c-0.923-8.329,2.053-15.056,5.724-19.993c2.747,6.618,5.916,21.952,5.69,35.706
			c-7.515,9.239-15.593,17.664-24.588,25.617C327.651,826.95,328.562,824.498,329.457,822.178z M294.921,827.51
			c0.373,0.405,0.748,0.81,1.157,1.206c1.019,0.989,2.336,1.481,3.653,1.481c1.368,0,2.738-0.533,3.765-1.593
			c2.018-2.08,1.967-5.402-0.113-7.418c-6.053-5.87-5.653-13.98-4.04-20.161c0.933,1.173,1.949,2.344,3.067,3.511
			c2.006,2.098,5.33,2.164,7.415,0.161c2.093-2.003,2.164-5.323,0.161-7.415c-3.193-3.335-5.376-6.681-6.814-9.956
			c-0.051-0.12-0.104-0.236-0.164-0.352c-3.212-7.589-2.371-14.776-0.351-20.513c7.526,10.172,23.604,34.841,17.008,51.941
			c-2.973,7.713-6.096,16.58-9.013,25.21c-0.009,0.025-0.017,0.05-0.025,0.075c-1.854,5.486-3.625,10.876-5.216,15.806
			c-1.842-8.048-4.608-14.459-8.256-19.109C293.244,835.393,293.572,830.856,294.921,827.51z M295.941,865.667
			c0.125,0.704,0.255,1.398,0.365,2.127c0.622,4.098,3.822,7.07,7.964,7.395c0.238,0.018,0.474,0.028,0.71,0.028
			c3.822-0.003,7.208-2.444,8.381-6.135c1.908-6.015,4.234-13.189,6.718-20.58c3.424-2.625,6.716-5.29,9.905-7.996
			c0.705,8.799,4.385,18.752,14.203,26.121c-12.311,6.743-19.611,10.497-19.912,10.652c-5.341,2.73-9.664,7.177-12.175,12.52
			c-11.073,23.578-33.473,55.194-56.485,68.898c-1.112,0.663-1.934,1.042-2.508,1.26c-0.423-2.702,0.516-7.863,2.775-15.391
			c0.086-0.22,0.151-0.444,0.207-0.673c3.619-11.879,10.419-29.468,20.412-52.74c2.346-5.466,4.201-9.785,5.149-12.3
			C283.065,875.101,288.578,870.811,295.941,865.667z M73.285,925.695c2.655-25.876,24.577-46.128,51.142-46.128
			c7.121,0,14.027,1.44,20.53,4.275l3.942,1.721l2.459-3.53c18.645-26.754,49.195-42.725,81.726-42.725
			c21.5,0,40.6,5.973,56.894,17.728c-9.145,6.386-15.697,11.623-18.144,18.117c-0.866,2.292-2.679,6.516-4.974,11.862
			c-6.637,15.456-11.802,28.129-15.621,38.518C225.692,924.672,104.297,925.473,73.285,925.695z M945.358,862.154l2.459,3.53
			l3.942-1.721c7.841-3.42,16.171-5.154,24.759-5.154c32.407,0,59.067,24.994,61.759,56.716
			c-39.23-0.27-217.119-1.401-229.213,0.069c-18.464-10.046-39.348-15.576-60.937-15.576c-29.818,0-58.832,10.497-81.698,29.557
			c-2.226,1.854-2.526,5.161-0.671,7.387c1.854,2.223,5.156,2.523,7.387,0.671c20.986-17.49,47.615-27.123,74.982-27.123
			c38.286,0,74.244,18.799,96.188,50.284l2.459,3.53l3.942-1.721c7.707-3.361,15.894-5.067,24.331-5.067
			c31.834,0,58.043,24.539,60.714,55.691H154.255c2.633-25.896,24.567-46.168,51.145-46.168c7.123,0,14.029,1.44,20.53,4.275
			l3.942,1.721l2.459-3.53c3.14-4.506,6.646-8.714,10.459-12.627c-0.374,5.797,0.818,9.456,3.403,11.723
			c1.621,1.422,3.537,2.134,5.735,2.134c2.626,0,5.651-1.014,9.055-3.04c24.908-14.836,48.88-48.476,60.615-73.455
			c1.527-3.248,4.173-5.963,7.454-7.641c0.365-0.187,10.923-5.617,28.194-15.22c0.172-0.092,0.345-0.172,0.507-0.283
			c4.23-2.354,8.857-4.956,13.827-7.786c0.257-0.12,0.503-0.26,0.738-0.42c11.24-6.409,24.207-13.979,38.337-22.534
			c4.64,5.879,8.222,12.61,10.423,19.711l2.672,8.617l6.168-6.586c14.969-15.984,35.253-24.785,57.11-24.785
			c7.139,0,14.262,0.984,21.171,2.92l6.757,1.896l-0.125-8.087c0-25.834,11.246-49.644,29.975-65.98
			c-2.305,6.406-1.709,13.355-1.053,20.89c0.179,2.072,0.371,4.252,0.515,6.557c0.269,4.278-0.315,10.771-0.935,17.646
			c-1.773,19.682-3.783,41.988,9.367,48.519c1.621,0.807,3.312,1.209,5.023,1.209c1.737,0,3.499-0.415,5.23-1.247
			c17.851-8.573,30.563-66.152,30.689-66.731c0.937-4.296,3.478-7.941,7.159-10.261c10.534-6.654,24.684-14.404,27.419-15.893
			c4.465-1.221,8.788-2.456,13.033-3.699c0.001,0,0.001,0,0.002-0.001c67.005-19.617,107.136-41.834,134.638-62.657
			c57.058,3.524,102.994,47.431,109.765,103.883c-12.203-3.764-25.026-5.765-38.101-5.765c-30.276,0-59.736,10.658-82.956,30.013
			c-2.226,1.854-2.526,5.161-0.671,7.387c1.852,2.223,5.156,2.523,7.387,0.671c21.337-17.784,48.414-27.579,76.239-27.579
			C886.486,811.025,923.048,830.139,945.358,862.154z M891.368,780.733c-0.073,0.538-0.093,1.072-0.097,1.604
			c-14.408-46.757-54.453-81.946-103.714-89.254c11.134-9.415,20.035-18.401,28.102-26.553c7.73-7.812,14.408-14.562,21.557-20.128
			c9.016-7.023,12.71-14.413,10.978-21.962c-3.915-17.077-35.96-26.383-48.301-29.361c-1.618-6.847-5.947-13.593-12.549-19.332
			c-6.568-5.712-14.572-9.554-21.007-12.643c-12.468-5.986-24.985-12.497-35.56-20.989c9.943-7.059,11.841-17.406,11.175-23.791
			c2.531-5.213,4.805-10.633,7.011-15.891c4.956-11.816,9.639-22.976,17.044-32.308c0.999-1.263,2-2.472,2.984-3.658
			c3.401-4.103,6.883-8.339,9.482-13.771c0.597,0.027,1.166,0.045,1.691,0.052c0.128,0,0.256,0.003,0.384,0.003
			c7.943,0,14.856-3.225,18.548-8.665c2.543-3.75,4.49-7.795,5.955-12.025c2.674,0.263,6.393,0.522,10.756,0.522
			c13.092,0,31.739-2.333,43.64-13.909c1.06-1.032,2.29-1.742,3.65-2.111c4.879-1.325,45.32-13.407,85.712-59.049L891.368,780.733z
			 M905.689,782.672c-0.125,0.909-0.735,1.34-1.086,1.514c-0.353,0.172-1.063,0.392-1.86-0.056
			c-0.704-0.402-1.089-1.181-0.981-1.985l64.854-477.839c1.314,0.174,2.632,0.309,3.948,0.379L905.689,782.672z M986.196,261.632
			c-2.226,14.629-3.94,25.525-5.056,31.153c-0.131,0.656-0.658,1.137-1.319,1.199c-1.23,0.117-2.431,0.197-3.597,0.243
			c-0.005,0-0.011,0.001-0.016,0.001c-8.227,0.322-14.741-1.09-17.81-3.935c-1.063-0.989-2.472-2.738-2.395-6.514
			c0.279-14.134,4.032-26.967,9.339-31.929c1.767-1.652,3.107-1.819,3.745-1.819c0.097,0,0.179,0.003,0.243,0.008
			c1.048,0.049,2.113,0.082,3.181,0.115c5.305,0.167,10.789,0.341,12.754,2.702C986.849,254.759,986.647,258.678,986.196,261.632z
			 M979.328,240.033c-1.322-0.129-2.647-0.222-3.962-0.276l14.37-106.02c0.704,0.149,1.416,0.277,2.144,0.362
			c0.601,0.07,1.195,0.08,1.791,0.105L979.328,240.033z M1007.584,112.232c-0.84,7.152-7.305,12.272-14.485,11.447
			c-7.149-0.838-12.285-7.336-11.447-14.485c0.779-6.637,6.429-11.537,12.953-11.537c0.505,0,1.014,0.031,1.529,0.09
			C1003.286,98.584,1008.422,105.083,1007.584,112.232z M1125.432,93.797c-6.373,6.283-17.569,6.862-31.521,1.632
			c-2.71-1.019-5.738,0.359-6.755,3.071c-1.017,2.715,0.359,5.738,3.071,6.755c1.826,0.684,3.577,1.26,5.274,1.762
			c-1.226,2.234-3.144,4.784-6.066,6.539c-4.454,2.679-10.384,3.002-17.638,0.973c-6.03-1.688-11.001-3.171-15.192-4.534
			c-2.756-0.891-5.717,0.617-6.611,3.368c-0.894,2.756,0.612,5.715,3.368,6.611c0.637,0.207,1.328,0.422,2,0.634
			c-2.027,1.696-4.843,3.464-8.672,4.476c-8.343,2.208-18.442,0.107-30.042-6.122c0.653-1.744,1.13-3.581,1.356-5.512
			c0.505-4.311-0.216-8.479-1.853-12.189c6.998-5.37,14.702-11.294,20.429-15.728c3.571-2.761,8.015-4.016,12.497-3.527
			l77.448,8.396c0.282,0.069,0.417,0.141,0.441,0.141h0.003C1127.107,90.923,1126.859,92.391,1125.432,93.797z"/>
		<path fill="#494170" d="M825.289,391.142c2.416,0.41,4.747,0.586,6.973,0.586c13.769,0,23.489-6.746,23.958-7.078
			c2.097-1.484,2.593-4.38,1.117-6.483c-1.477-2.108-4.382-2.612-6.493-1.149c-0.103,0.073-10.551,7.19-24.001,4.922
			c-2.546-0.449-4.948,1.283-5.378,3.824S822.748,390.713,825.289,391.142z"/>
		<path fill="#494170" d="M719.348,358.089c-2.851,0.43-4.8,3.079-4.39,5.93c0.412,2.856,3.076,4.836,5.922,4.449
			c0.497-0.064,12.234-1.532,24.272,8.307c0.973,0.797,2.149,1.183,3.317,1.183c1.519,0,3.028-0.658,4.065-1.926
			c1.834-2.244,1.501-5.548-0.743-7.382C736.002,355.745,720.016,357.989,719.348,358.089z"/>
	</g>
	<g>
		<path fill="#494170" d="M309.221,1130.405h-15.768c-0.645,0-1.191-0.223-1.637-0.669c-0.446-0.446-0.669-0.991-0.669-1.637v-4.887
			c0-0.646,0.223-1.191,0.669-1.637c0.446-0.446,0.991-0.669,1.637-0.669h12.31c1.568,0,2.92,0.569,4.057,1.706
			c1.137,1.137,1.706,2.49,1.706,4.057v1.429c0,0.646-0.223,1.191-0.669,1.637C310.412,1130.182,309.867,1130.405,309.221,1130.405z
			"/>
		<path fill="#494170" d="M403.98,1084.298v2.674c0,0.738-0.261,1.375-0.784,1.913c-0.523,0.538-1.153,0.807-1.89,0.807
			c-0.553,0-1.06,0.092-1.521,0.277c-0.461,0.184-0.845,0.538-1.153,1.06v20.84h24.99v-18.166c0-1.475-0.523-2.743-1.568-3.804
			c-1.045-1.061-2.305-1.591-3.781-1.591v-1.983c0-0.553,0.2-1.03,0.599-1.429c0.4-0.4,0.876-0.599,1.429-0.599h15.446v2.674
			c0,0.738-0.261,1.375-0.784,1.913c-0.523,0.538-1.153,0.807-1.89,0.807c-0.584,0-1.099,0.092-1.545,0.277
			c-0.446,0.184-0.838,0.538-1.176,1.06v48.412c0.061,1.537,0.607,2.82,1.637,3.85c1.03,1.03,2.282,1.545,3.758,1.545v1.983
			c0,0.553-0.2,1.03-0.599,1.429c-0.4,0.4-0.876,0.599-1.429,0.599h-15.446v-2.674c0-0.738,0.261-1.376,0.784-1.913
			c0.523-0.538,1.153-0.807,1.89-0.807c0.584,0,1.099-0.092,1.545-0.277c0.446-0.184,0.822-0.538,1.13-1.06v-23.514h-24.99v20.84
			c0.031,1.537,0.561,2.82,1.591,3.85c1.03,1.03,2.282,1.545,3.758,1.545v1.983c0,0.553-0.192,1.03-0.576,1.429
			c-0.384,0.4-0.853,0.599-1.406,0.599h-20.056v-2.674c0-0.738,0.261-1.376,0.784-1.913c0.523-0.538,1.153-0.807,1.89-0.807
			c0.584,0,1.099-0.092,1.545-0.277c0.446-0.184,0.838-0.538,1.176-1.06v-48.412c0-1.475-0.53-2.743-1.591-3.804
			c-1.06-1.061-2.328-1.591-3.804-1.591v-1.983c0-0.553,0.2-1.03,0.599-1.429c0.4-0.4,0.876-0.599,1.429-0.599H403.98z"/>
		<path fill="#494170" d="M501.889,1142.116c1.537-0.031,2.82-0.561,3.85-1.591c1.03-1.03,1.545-2.298,1.545-3.804h1.983
			c0.553,0,1.03,0.2,1.429,0.599c0.4,0.4,0.599,0.876,0.599,1.429v10.097h-48.412v-2.674c0-0.738,0.261-1.376,0.784-1.913
			c0.523-0.538,1.153-0.807,1.89-0.807c1.137,0,2.044-0.446,2.72-1.337v-48.412c-0.061-1.537-0.607-2.82-1.637-3.85
			c-1.03-1.03-2.282-1.545-3.758-1.545v-1.983c0-0.553,0.2-1.03,0.599-1.429c0.4-0.4,0.876-0.599,1.429-0.599h46.383v10.743h-2.674
			c-0.738,0-1.376-0.261-1.913-0.784c-0.538-0.523-0.807-1.153-0.807-1.89c0-1.137-0.446-2.029-1.337-2.674h-24.99v22.177h21.486
			v10.097c0,0.553-0.192,1.022-0.576,1.406c-0.384,0.384-0.853,0.576-1.406,0.576h-2.029c0-1.475-0.515-2.728-1.545-3.758
			c-1.03-1.03-2.298-1.56-3.804-1.591h-12.126v23.514H501.889z"/>
		<path fill="#494170" d="M554.802,1139.442c0.031,1.537,0.561,2.82,1.591,3.85c1.03,1.03,2.282,1.545,3.758,1.545v1.983
			c0,0.553-0.192,1.03-0.576,1.429c-0.384,0.4-0.853,0.599-1.406,0.599h-20.056v-2.674c0-0.738,0.261-1.376,0.784-1.913
			c0.523-0.538,1.153-0.807,1.89-0.807c1.137,0,2.044-0.446,2.72-1.337v-48.412c-0.061-1.537-0.607-2.82-1.637-3.85
			s-2.282-1.545-3.758-1.545v-1.983c0-0.553,0.2-1.03,0.599-1.429c0.4-0.4,0.876-0.599,1.429-0.599h27.572
			c5.195,0,9.629,1.837,13.302,5.51c3.673,3.673,5.51,8.107,5.51,13.302c0,4.949-1.644,9.191-4.933,12.725s-7.423,5.548-12.403,6.04
			l17.336,20.241c0.492,0.492,0.922,0.838,1.291,1.037s0.845,0.3,1.429,0.3c0.738,0,1.368,0.269,1.89,0.807
			c0.523,0.538,0.784,1.176,0.784,1.913v2.674h-16.414v-2.72c0.646-0.123,1.176-0.43,1.591-0.922
			c0.415-0.492,0.622-1.076,0.622-1.752l-18.443-21.486h-4.472V1139.442z M567.711,1116.573c3.719,0,6.893-1.314,9.521-3.942
			c2.628-2.628,3.942-5.802,3.942-9.521c0-3.689-1.314-6.847-3.942-9.475s-5.802-3.942-9.521-3.942h-12.91v26.88H567.711z"/>
		<path fill="#494170" d="M666.868,1143.453c0.584,0,1.099-0.092,1.545-0.277c0.446-0.184,0.822-0.538,1.13-1.06v-46.199
			l-20.148,34.949l-15.584-27.018v35.594c0.031,1.537,0.561,2.813,1.591,3.827c1.03,1.014,2.282,1.522,3.758,1.522v2.029
			c0,0.553-0.192,1.03-0.576,1.429c-0.384,0.4-0.868,0.599-1.452,0.599h-20.01v-2.674c0-0.738,0.261-1.376,0.784-1.913
			c0.523-0.538,1.153-0.807,1.89-0.807c0.584,0,1.099-0.092,1.545-0.277c0.446-0.184,0.838-0.538,1.176-1.06v-48.412
			c-0.061-1.537-0.607-2.813-1.637-3.827c-1.03-1.014-2.282-1.521-3.758-1.521v-2.029c0-0.553,0.2-1.03,0.599-1.429
			c0.4-0.4,0.876-0.599,1.429-0.599h11.112l19.134,33.15l19.134-33.15h13.14v2.674c0,0.738-0.261,1.375-0.784,1.913
			c-0.523,0.538-1.153,0.807-1.89,0.807c-0.584,0-1.099,0.092-1.545,0.277c-0.446,0.184-0.838,0.538-1.176,1.06v48.412
			c0.061,1.537,0.607,2.813,1.637,3.827c1.03,1.014,2.282,1.522,3.758,1.522v2.029c0,0.553-0.2,1.03-0.599,1.429
			c-0.4,0.4-0.876,0.599-1.429,0.599h-15.446v-2.674c0-0.738,0.261-1.376,0.784-1.913
			C665.5,1143.722,666.131,1143.453,666.868,1143.453z"/>
		<path fill="#494170" d="M747.813,1142.116c1.537-0.031,2.82-0.561,3.85-1.591c1.03-1.03,1.545-2.298,1.545-3.804h1.983
			c0.553,0,1.03,0.2,1.429,0.599c0.4,0.4,0.599,0.876,0.599,1.429v10.097h-48.412v-2.674c0-0.738,0.261-1.376,0.784-1.913
			c0.523-0.538,1.153-0.807,1.89-0.807c1.137,0,2.044-0.446,2.72-1.337v-48.412c-0.062-1.537-0.607-2.82-1.637-3.85
			c-1.03-1.03-2.282-1.545-3.758-1.545v-1.983c0-0.553,0.2-1.03,0.599-1.429c0.4-0.4,0.876-0.599,1.429-0.599h46.383v10.743h-2.674
			c-0.738,0-1.375-0.261-1.913-0.784c-0.538-0.523-0.807-1.153-0.807-1.89c0-1.137-0.446-2.029-1.337-2.674h-24.99v22.177h21.486
			v10.097c0,0.553-0.192,1.022-0.576,1.406c-0.384,0.384-0.853,0.576-1.406,0.576h-2.029c0-1.475-0.515-2.728-1.545-3.758
			c-1.03-1.03-2.298-1.56-3.804-1.591h-12.126v23.514H747.813z"/>
		<path fill="#494170" d="M791.781,1116.942c-3.688-2.951-5.978-6.393-6.87-10.328c-0.338-1.475-0.507-2.951-0.507-4.426
			c0-2.367,0.584-5.049,1.752-8.046c1.168-2.997,3.412-5.633,6.732-7.907c2.889-1.967,6.332-2.951,10.328-2.951
			c0.584,0,1.183,0.015,1.798,0.046c3.566,0.369,6.778,1.629,9.636,3.781l2.536,1.983l-9.682,11.527
			c-0.369,0.43-0.815,0.661-1.337,0.692h-0.138c-0.492,0-0.938-0.169-1.337-0.507l-1.521-1.291c0.953-1.199,1.429-2.351,1.429-3.458
			c0-0.338-0.115-0.938-0.346-1.798c-0.231-0.861-1.037-1.691-2.421-2.49c-1.076-0.615-2.244-0.922-3.504-0.922
			c-0.369,0-1.076,0.077-2.121,0.23c-1.045,0.154-2.259,1.076-3.642,2.766c-1.014,1.445-1.521,2.966-1.521,4.565
			c0,0.307,0.069,1.037,0.207,2.19c0.138,1.153,1.007,2.405,2.605,3.758l15.999,12.034c3.688,2.92,5.978,6.347,6.87,10.282
			c0.338,1.475,0.507,2.951,0.507,4.426c0,2.367-0.584,5.049-1.752,8.046s-3.412,5.633-6.732,7.907
			c-2.889,1.967-6.332,2.951-10.328,2.951c-0.584,0-1.183-0.015-1.798-0.046c-3.566-0.369-6.778-1.629-9.636-3.781l-2.536-1.983
			l9.682-11.526c0.369-0.4,0.815-0.63,1.337-0.692h0.138c0.492,0,0.938,0.169,1.337,0.507l1.521,1.291
			c-0.984,1.199-1.475,2.367-1.475,3.504c0,0.338,0.123,0.93,0.369,1.775c0.246,0.845,1.06,1.668,2.444,2.467
			c1.045,0.615,2.198,0.922,3.458,0.922c0.369,0,1.083-0.077,2.144-0.231s2.282-1.076,3.665-2.766
			c1.014-1.414,1.521-2.935,1.521-4.565c0-0.307-0.069-1.037-0.207-2.19c-0.138-1.153-1.007-2.39-2.605-3.712L791.781,1116.942z"/>
		<path fill="#494170" d="M906.547,1130.405h-15.768c-0.645,0-1.191-0.223-1.637-0.669c-0.446-0.446-0.669-0.991-0.669-1.637v-4.887
			c0-0.646,0.223-1.191,0.669-1.637c0.446-0.446,0.991-0.669,1.637-0.669h12.31c1.568,0,2.92,0.569,4.057,1.706
			c1.137,1.137,1.706,2.49,1.706,4.057v1.429c0,0.646-0.223,1.191-0.669,1.637C907.738,1130.182,907.193,1130.405,906.547,1130.405z
			"/>
	</g>
</g>
</svg>
